<mxfile host="app.diagrams.net" modified="2022-06-27T07:13:36.295Z" agent="5.0 (Macintosh; Intel Mac OS X 10_15_7) AppleWebKit/537.36 (KHTML, like Gecko) Chrome/103.0.0.0 Safari/537.36" etag="CcsqnaXkfqWrRj7sC7FB" version="20.0.3" type="github">
  <diagram id="C5RBs43oDa-KdzZeNtuy" name="Page-1">
    <mxGraphModel dx="1426" dy="769" grid="1" gridSize="10" guides="1" tooltips="1" connect="1" arrows="1" fold="1" page="1" pageScale="1" pageWidth="827" pageHeight="1169" math="0" shadow="0">
      <root>
        <mxCell id="WIyWlLk6GJQsqaUBKTNV-0" />
        <mxCell id="WIyWlLk6GJQsqaUBKTNV-1" parent="WIyWlLk6GJQsqaUBKTNV-0" />
        <mxCell id="WKohlmqHKX6ht85vBPTF-11" value="" style="edgeStyle=orthogonalEdgeStyle;rounded=0;orthogonalLoop=1;jettySize=auto;html=1;" edge="1" parent="WIyWlLk6GJQsqaUBKTNV-1" source="WKohlmqHKX6ht85vBPTF-9" target="WKohlmqHKX6ht85vBPTF-10">
          <mxGeometry relative="1" as="geometry" />
        </mxCell>
        <mxCell id="WKohlmqHKX6ht85vBPTF-9" value="Get Label ID from Cache&amp;nbsp;" style="rounded=1;whiteSpace=wrap;html=1;fillColor=#d5e8d4;strokeColor=#82b366;" vertex="1" parent="WIyWlLk6GJQsqaUBKTNV-1">
          <mxGeometry x="310" y="120" width="120" height="60" as="geometry" />
        </mxCell>
        <mxCell id="WKohlmqHKX6ht85vBPTF-13" value="" style="edgeStyle=orthogonalEdgeStyle;rounded=0;orthogonalLoop=1;jettySize=auto;html=1;" edge="1" parent="WIyWlLk6GJQsqaUBKTNV-1" source="WKohlmqHKX6ht85vBPTF-10" target="WKohlmqHKX6ht85vBPTF-12">
          <mxGeometry relative="1" as="geometry" />
        </mxCell>
        <mxCell id="WKohlmqHKX6ht85vBPTF-15" value="" style="edgeStyle=orthogonalEdgeStyle;rounded=0;orthogonalLoop=1;jettySize=auto;html=1;" edge="1" parent="WIyWlLk6GJQsqaUBKTNV-1" source="WKohlmqHKX6ht85vBPTF-10">
          <mxGeometry relative="1" as="geometry">
            <mxPoint x="370" y="420" as="targetPoint" />
          </mxGeometry>
        </mxCell>
        <mxCell id="WKohlmqHKX6ht85vBPTF-10" value="Label Exist" style="rhombus;whiteSpace=wrap;html=1;rounded=1;fillColor=#dae8fc;strokeColor=#6c8ebf;" vertex="1" parent="WIyWlLk6GJQsqaUBKTNV-1">
          <mxGeometry x="330" y="250" width="80" height="80" as="geometry" />
        </mxCell>
        <mxCell id="WKohlmqHKX6ht85vBPTF-19" value="" style="edgeStyle=orthogonalEdgeStyle;rounded=0;orthogonalLoop=1;jettySize=auto;html=1;" edge="1" parent="WIyWlLk6GJQsqaUBKTNV-1" source="WKohlmqHKX6ht85vBPTF-12">
          <mxGeometry relative="1" as="geometry">
            <mxPoint x="530" y="160" as="targetPoint" />
          </mxGeometry>
        </mxCell>
        <mxCell id="WKohlmqHKX6ht85vBPTF-12" value="Create label through gmail api&amp;nbsp;" style="whiteSpace=wrap;html=1;rounded=1;fillColor=#ffe6cc;strokeColor=#d79b00;" vertex="1" parent="WIyWlLk6GJQsqaUBKTNV-1">
          <mxGeometry x="470" y="260" width="120" height="60" as="geometry" />
        </mxCell>
        <mxCell id="WKohlmqHKX6ht85vBPTF-23" value="" style="edgeStyle=orthogonalEdgeStyle;rounded=0;orthogonalLoop=1;jettySize=auto;html=1;" edge="1" parent="WIyWlLk6GJQsqaUBKTNV-1" source="WKohlmqHKX6ht85vBPTF-14" target="WKohlmqHKX6ht85vBPTF-22">
          <mxGeometry relative="1" as="geometry" />
        </mxCell>
        <mxCell id="WKohlmqHKX6ht85vBPTF-25" value="" style="edgeStyle=orthogonalEdgeStyle;rounded=0;orthogonalLoop=1;jettySize=auto;html=1;" edge="1" parent="WIyWlLk6GJQsqaUBKTNV-1" source="WKohlmqHKX6ht85vBPTF-14" target="WKohlmqHKX6ht85vBPTF-24">
          <mxGeometry relative="1" as="geometry" />
        </mxCell>
        <mxCell id="WKohlmqHKX6ht85vBPTF-14" value="Add Lable to The Message" style="rhombus;whiteSpace=wrap;html=1;rounded=1;fillColor=#dae8fc;strokeColor=#6c8ebf;" vertex="1" parent="WIyWlLk6GJQsqaUBKTNV-1">
          <mxGeometry x="317.5" y="420" width="105" height="114" as="geometry" />
        </mxCell>
        <mxCell id="WKohlmqHKX6ht85vBPTF-16" value="NO" style="text;html=1;strokeColor=none;fillColor=none;align=center;verticalAlign=middle;whiteSpace=wrap;rounded=0;" vertex="1" parent="WIyWlLk6GJQsqaUBKTNV-1">
          <mxGeometry x="400" y="267" width="60" height="30" as="geometry" />
        </mxCell>
        <mxCell id="WKohlmqHKX6ht85vBPTF-17" value="Yes" style="text;html=1;strokeColor=none;fillColor=none;align=center;verticalAlign=middle;whiteSpace=wrap;rounded=0;" vertex="1" parent="WIyWlLk6GJQsqaUBKTNV-1">
          <mxGeometry x="352" y="340" width="60" height="30" as="geometry" />
        </mxCell>
        <mxCell id="WKohlmqHKX6ht85vBPTF-20" value="" style="endArrow=classic;html=1;rounded=0;entryX=1.025;entryY=0.65;entryDx=0;entryDy=0;entryPerimeter=0;" edge="1" parent="WIyWlLk6GJQsqaUBKTNV-1" target="WKohlmqHKX6ht85vBPTF-9">
          <mxGeometry width="50" height="50" relative="1" as="geometry">
            <mxPoint x="530" y="160" as="sourcePoint" />
            <mxPoint x="440" y="160" as="targetPoint" />
          </mxGeometry>
        </mxCell>
        <mxCell id="WKohlmqHKX6ht85vBPTF-21" value="Add Label in the cache&amp;nbsp;" style="text;html=1;align=center;verticalAlign=middle;resizable=0;points=[];autosize=1;strokeColor=none;fillColor=none;" vertex="1" parent="WIyWlLk6GJQsqaUBKTNV-1">
          <mxGeometry x="430" y="135" width="150" height="30" as="geometry" />
        </mxCell>
        <mxCell id="WKohlmqHKX6ht85vBPTF-22" value="Label Added successfully&amp;nbsp;" style="rounded=1;whiteSpace=wrap;html=1;fillColor=#d5e8d4;strokeColor=#82b366;" vertex="1" parent="WIyWlLk6GJQsqaUBKTNV-1">
          <mxGeometry x="310" y="641" width="120" height="60" as="geometry" />
        </mxCell>
        <mxCell id="WKohlmqHKX6ht85vBPTF-29" value="" style="edgeStyle=orthogonalEdgeStyle;rounded=0;orthogonalLoop=1;jettySize=auto;html=1;" edge="1" parent="WIyWlLk6GJQsqaUBKTNV-1" source="WKohlmqHKX6ht85vBPTF-24" target="WKohlmqHKX6ht85vBPTF-28">
          <mxGeometry relative="1" as="geometry">
            <Array as="points">
              <mxPoint x="555" y="600" />
              <mxPoint x="555" y="600" />
            </Array>
          </mxGeometry>
        </mxCell>
        <mxCell id="WKohlmqHKX6ht85vBPTF-31" value="" style="edgeStyle=orthogonalEdgeStyle;rounded=0;orthogonalLoop=1;jettySize=auto;html=1;" edge="1" parent="WIyWlLk6GJQsqaUBKTNV-1" source="WKohlmqHKX6ht85vBPTF-24" target="WKohlmqHKX6ht85vBPTF-30">
          <mxGeometry relative="1" as="geometry" />
        </mxCell>
        <mxCell id="WKohlmqHKX6ht85vBPTF-24" value="Error Message&amp;nbsp;" style="rhombus;whiteSpace=wrap;html=1;rounded=1;fillColor=#f8cecc;strokeColor=#b85450;" vertex="1" parent="WIyWlLk6GJQsqaUBKTNV-1">
          <mxGeometry x="515" y="437" width="80" height="80" as="geometry" />
        </mxCell>
        <mxCell id="WKohlmqHKX6ht85vBPTF-26" value="Error" style="text;html=1;strokeColor=none;fillColor=none;align=center;verticalAlign=middle;whiteSpace=wrap;rounded=0;" vertex="1" parent="WIyWlLk6GJQsqaUBKTNV-1">
          <mxGeometry x="430" y="456" width="60" height="30" as="geometry" />
        </mxCell>
        <mxCell id="WKohlmqHKX6ht85vBPTF-27" value="Success" style="text;html=1;strokeColor=none;fillColor=none;align=center;verticalAlign=middle;whiteSpace=wrap;rounded=0;" vertex="1" parent="WIyWlLk6GJQsqaUBKTNV-1">
          <mxGeometry x="365" y="560" width="60" height="30" as="geometry" />
        </mxCell>
        <mxCell id="WKohlmqHKX6ht85vBPTF-28" value="Label already added this messages&amp;nbsp;" style="whiteSpace=wrap;html=1;rounded=1;fillColor=#ffe6cc;strokeColor=#d79b00;" vertex="1" parent="WIyWlLk6GJQsqaUBKTNV-1">
          <mxGeometry x="490" y="640" width="120" height="60" as="geometry" />
        </mxCell>
        <mxCell id="WKohlmqHKX6ht85vBPTF-30" value="Other Error" style="whiteSpace=wrap;html=1;rounded=1;fillColor=#f8cecc;strokeColor=#b85450;fontStyle=0" vertex="1" parent="WIyWlLk6GJQsqaUBKTNV-1">
          <mxGeometry x="655" y="447" width="120" height="60" as="geometry" />
        </mxCell>
        <mxCell id="WKohlmqHKX6ht85vBPTF-33" value="" style="endArrow=classic;html=1;rounded=0;exitX=0.558;exitY=0.017;exitDx=0;exitDy=0;exitPerimeter=0;" edge="1" parent="WIyWlLk6GJQsqaUBKTNV-1" source="WKohlmqHKX6ht85vBPTF-30">
          <mxGeometry width="50" height="50" relative="1" as="geometry">
            <mxPoint x="690" y="440" as="sourcePoint" />
            <mxPoint x="720" y="120" as="targetPoint" />
          </mxGeometry>
        </mxCell>
        <mxCell id="WKohlmqHKX6ht85vBPTF-35" value="" style="endArrow=classic;html=1;rounded=0;entryX=1;entryY=0;entryDx=0;entryDy=0;" edge="1" parent="WIyWlLk6GJQsqaUBKTNV-1" target="WKohlmqHKX6ht85vBPTF-9">
          <mxGeometry width="50" height="50" relative="1" as="geometry">
            <mxPoint x="720" y="120" as="sourcePoint" />
            <mxPoint x="670" y="130" as="targetPoint" />
          </mxGeometry>
        </mxCell>
        <mxCell id="WKohlmqHKX6ht85vBPTF-37" value="Try again" style="text;html=1;strokeColor=none;fillColor=none;align=center;verticalAlign=middle;whiteSpace=wrap;rounded=0;" vertex="1" parent="WIyWlLk6GJQsqaUBKTNV-1">
          <mxGeometry x="720" y="240" width="60" height="30" as="geometry" />
        </mxCell>
        <mxCell id="WKohlmqHKX6ht85vBPTF-38" value="&lt;h1&gt;Update label to the messages&amp;nbsp;&lt;/h1&gt;" style="text;html=1;spacing=5;spacingTop=-20;whiteSpace=wrap;overflow=hidden;rounded=0;fillColor=#eeeeee;strokeColor=#36393d;" vertex="1" parent="WIyWlLk6GJQsqaUBKTNV-1">
          <mxGeometry x="317.5" y="10" width="352.5" height="40" as="geometry" />
        </mxCell>
        <mxCell id="WKohlmqHKX6ht85vBPTF-39" value="End" style="rounded=1;whiteSpace=wrap;html=1;fillColor=#b0e3e6;strokeColor=#0e8088;" vertex="1" parent="WIyWlLk6GJQsqaUBKTNV-1">
          <mxGeometry x="390" y="770" width="140" height="60" as="geometry" />
        </mxCell>
        <mxCell id="WKohlmqHKX6ht85vBPTF-41" value="" style="endArrow=classic;html=1;rounded=0;exitX=0.25;exitY=1;exitDx=0;exitDy=0;entryX=0.917;entryY=0;entryDx=0;entryDy=0;entryPerimeter=0;" edge="1" parent="WIyWlLk6GJQsqaUBKTNV-1" source="WKohlmqHKX6ht85vBPTF-28" target="WKohlmqHKX6ht85vBPTF-39">
          <mxGeometry width="50" height="50" relative="1" as="geometry">
            <mxPoint x="530" y="780" as="sourcePoint" />
            <mxPoint x="580" y="730" as="targetPoint" />
          </mxGeometry>
        </mxCell>
        <mxCell id="WKohlmqHKX6ht85vBPTF-43" value="" style="endArrow=classic;html=1;rounded=0;exitX=0.75;exitY=1;exitDx=0;exitDy=0;" edge="1" parent="WIyWlLk6GJQsqaUBKTNV-1" source="WKohlmqHKX6ht85vBPTF-22">
          <mxGeometry width="50" height="50" relative="1" as="geometry">
            <mxPoint x="380" y="790" as="sourcePoint" />
            <mxPoint x="400" y="770" as="targetPoint" />
          </mxGeometry>
        </mxCell>
      </root>
    </mxGraphModel>
  </diagram>
</mxfile>
